<svg width="18" height="18" viewBox="0 0 18 18" fill="none" xmlns="http://www.w3.org/2000/svg">
<path d="M8.97418 7.42388C8.97418 7.61288 9.12781 7.76138 9.31556 7.76138C9.70474 7.76138 10.0188 8.07526 10.0188 8.45663C10.0188 8.64225 10.1724 8.79413 10.3602 8.79413C10.5479 8.79413 10.7016 8.64225 10.7016 8.45663C10.7016 7.70064 10.0802 7.08638 9.31556 7.08638C9.12781 7.08638 8.97418 7.23826 8.97418 7.42388ZM14.5318 8.79413C14.723 8.79413 14.8732 8.64225 14.8732 8.45663C14.8732 5.42589 12.3811 2.96214 9.31556 2.96214C9.12781 2.96214 8.97418 3.114 8.97418 3.29964C8.97418 3.48526 9.12781 3.63714 9.31556 3.63714C12.0056 3.63714 14.1905 5.80051 14.1905 8.45663C14.1905 8.64225 14.3441 8.79413 14.5318 8.79413Z" fill="#161C35"/>
<path d="M12.1046 8.45663C12.1046 8.64225 12.2582 8.79413 12.446 8.79413C12.6338 8.79413 12.7874 8.64225 12.7874 8.45663C12.7874 6.56326 11.2307 5.02426 9.31554 5.02426C9.12779 5.02426 8.97416 5.17614 8.97416 5.36176C8.97416 5.55076 9.12779 5.69926 9.31554 5.69926C10.8552 5.69926 12.1046 6.93788 12.1046 8.45663ZM9.31554 0.900002C9.12779 0.900002 8.97416 1.05188 8.97416 1.2375C8.97416 1.42314 9.12779 1.575 9.31554 1.575C13.1561 1.575 16.2797 4.66314 16.2797 8.45663C16.2797 8.64225 16.4299 8.79413 16.6211 8.79413C16.8088 8.79413 16.9624 8.64225 16.9624 8.45663C16.9624 4.28852 13.5316 0.900002 9.31554 0.900002ZM12.6508 12.0139L12.2036 12.2535C11.4492 12.6619 10.8621 13.7813 9.93104 12.9375L7.5 10.5L5.39993 8.45663C4.34484 7.1235 5.52624 6.80625 5.9393 6.05701L6.18168 5.61827C6.45478 5.11875 6.55377 4.55851 6.47185 3.99825C6.39333 3.43801 6.1373 2.92838 5.72764 2.52338C5.22924 2.03064 4.56696 1.76064 3.86031 1.76064C3.15365 1.76064 2.48796 2.03064 1.98953 2.52338L1.81545 2.69888C0.893721 3.61014 0.787894 5.1795 1.51503 7.1235C2.20119 8.97975 3.58379 10.9913 5.39993 12.7868C8.16851 15.5239 11.2512 17.1 13.4633 17.1C14.3372 17.1 15.078 16.8536 15.6037 16.3339L15.7813 16.1584C16.2763 15.669 16.5528 15.0143 16.5562 14.3089C16.5528 13.6204 16.2694 12.9454 15.7813 12.4628C14.9585 11.6494 13.6715 11.4671 12.6508 12.0139Z" fill="#161C35"/>
</svg>
